<svg width="295" height="97" viewBox="0 0 295 97" fill="none" xmlns="http://www.w3.org/2000/svg">
<g clip-path="url(#clip0_23_156)">
<path d="M26.4428 39.169H39.8511L42.3471 45.4215H49.2943L36.6923 15.5479H29.6126L17.0439 45.4215H24.002L26.4428 39.169ZM33.136 22.1444L37.7306 33.5719H28.5414L33.136 22.1444Z" fill="#1D1E24"/>
<path d="M51.6548 51.0302H42.3442L33.1661 74.3072L23.999 51.0302H14.6773L12.3138 56.6273H19.4155L29.6539 80.8593H36.7335L46.9278 56.6273H54.0294L51.6548 51.0302Z" fill="#1D1E24"/>
<path d="M33.1339 0C14.866 0 0 21.6334 0 48.2197C0 74.8061 14.866 96.4506 33.1339 96.4506C51.4019 96.4506 66.2679 74.8172 66.2679 48.2197C66.2679 21.6223 51.424 0 33.1339 0ZM33.1339 92.7858C16.8652 92.7858 3.63369 72.7961 3.63369 48.2197C3.63369 23.6434 16.8762 3.66479 33.1339 3.66479C49.3917 3.66479 62.6453 23.6545 62.6453 48.2197C62.6453 72.785 49.4138 92.7858 33.1339 92.7858Z" fill="#1D1E24"/>
<path d="M102.048 56.9818L100.104 52.1953H90.1633L88.1864 57.0262H83.2163L92.9688 34.3711H97.2431L106.995 57.0262L102.048 56.9818ZM95.1224 39.9127L91.8091 47.9864H98.3695L95.1224 39.9127Z" fill="#1D1E24"/>
<path d="M125.646 56.9821H109.432V34.3271H114.004V52.8287H125.646V56.9821Z" fill="#1D1E24"/>
<path d="M145.822 56.9821H128.702V34.3271H145.755V38.4917H133.275V43.589H144.772V47.6869H133.275V52.8287H145.822V56.9821Z" fill="#1D1E24"/>
<path d="M169.744 56.9821H164.155L158.942 48.6975L153.73 56.9821H148.14L155.441 45.6213L148.14 34.3271H153.696L158.942 42.5452L164.189 34.3271H169.744L162.411 45.6213L169.744 56.9821Z" fill="#1D1E24"/>
<path d="M192.708 56.9821H188.301L178.581 34.3271H183.628L190.487 50.8298L197.38 34.3271H202.427L192.708 56.9821Z" fill="#1D1E24"/>
<path d="M209.594 34.3271H205.022V56.9821H209.594V34.3271Z" fill="#1D1E24"/>
<path d="M230.754 56.9821H214.542V34.3271H219.125V52.8287H230.754V56.9821Z" fill="#1D1E24"/>
<path d="M250.024 56.9821H233.812V34.3271H238.384V52.8287H250.024V56.9821Z" fill="#1D1E24"/>
<path d="M270.76 56.9818L268.815 52.1953H258.874L256.898 57.0262H251.929L261.68 34.3711H265.955L275.708 57.0262L270.76 56.9818ZM263.834 39.9127L260.521 47.9864H267.07L263.834 39.9127Z" fill="#1D1E24"/>
<path d="M294.691 40.3447L290.107 41.2885C289.921 40.2637 289.37 39.3422 288.556 38.6964C287.744 38.0504 286.725 37.7244 285.69 37.7792C283.403 37.7792 282.034 39.0564 282.034 40.5778C282.034 41.6883 282.53 42.5435 284.243 42.8878L289.08 43.8651C292.746 44.6424 295 46.8413 295 50.3506C295 54.7928 291.4 57.4913 286.054 57.4913C281.349 57.4913 277.217 55.2703 276.633 50.7615L281.448 49.7842C282.056 52.3496 283.933 53.4712 286.495 53.4712C289.058 53.4712 290.472 52.1942 290.472 50.5949C290.472 49.3066 289.865 48.5294 287.854 48.1185L283.071 47.2078C280.421 46.6414 277.217 45.1421 277.217 40.7221C277.217 36.6576 280.531 33.8146 285.8 33.8146C290.372 33.8146 293.83 36.3245 294.713 40.3447" fill="#1D1E24"/>
</g>
<defs>
<clipPath id="clip0_23_156">
<rect width="295" height="97" fill="white"/>
</clipPath>
</defs>
</svg>
