<svg width="44" height="44" viewBox="0 0 44 44" fill="none" xmlns="http://www.w3.org/2000/svg">
<path d="M22 42C33.0457 42 42 33.0457 42 22C42 10.9543 33.0457 2 22 2C10.9543 2 2 10.9543 2 22C2 33.0457 10.9543 42 22 42Z" stroke="white" stroke-width="3" stroke-linecap="round" stroke-linejoin="round"/>
<path d="M17 15.9307C17 14.9761 17 14.4988 17.1995 14.2324C17.3733 14.0001 17.6394 13.8549 17.9288 13.8342C18.2608 13.8105 18.6622 14.0686 19.4652 14.5848L28.9064 20.6541C29.6032 21.102 29.9516 21.326 30.0719 21.6108C30.177 21.8596 30.177 22.1404 30.0719 22.3892C29.9516 22.674 29.6032 22.898 28.9064 23.3459L19.4652 29.4152C18.6622 29.9314 18.2608 30.1895 17.9288 30.1658C17.6394 30.1451 17.3733 29.9998 17.1995 29.7676C17 29.5012 17 29.0239 17 28.0693V15.9307Z" stroke="white" stroke-width="3" stroke-linecap="round" stroke-linejoin="round"/>
</svg>
