<svg width="56" height="56" viewBox="0 0 56 56" fill="none" xmlns="http://www.w3.org/2000/svg">
<g id="ic:baseline-telegram">
<path id="Vector" d="M28.0001 4.66669C15.1201 4.66669 4.66675 15.12 4.66675 28C4.66675 40.88 15.1201 51.3334 28.0001 51.3334C40.8801 51.3334 51.3334 40.88 51.3334 28C51.3334 15.12 40.8801 4.66669 28.0001 4.66669ZM38.8267 20.5334C38.4767 24.22 36.9601 33.18 36.1901 37.31C35.8634 39.06 35.2101 39.6434 34.6034 39.7134C33.2501 39.83 32.2234 38.8267 30.9167 37.9634C28.8634 36.61 27.6967 35.77 25.7134 34.4634C23.4034 32.9467 24.8967 32.1067 26.2267 30.7534C26.5767 30.4034 32.5501 24.9667 32.6667 24.4767C32.683 24.4025 32.6808 24.3254 32.6605 24.2522C32.6401 24.179 32.6022 24.1119 32.5501 24.0567C32.4101 23.94 32.2234 23.9867 32.0601 24.01C31.8501 24.0567 28.5834 26.2267 22.2134 30.52C21.2801 31.15 20.4401 31.4767 19.6934 31.4534C18.8534 31.43 17.2667 30.9867 16.0767 30.59C14.6067 30.1234 13.4634 29.8667 13.5567 29.05C13.6034 28.63 14.1867 28.21 15.2834 27.7667C22.0967 24.8034 26.6234 22.8434 28.8867 21.91C35.3734 19.2034 36.7034 18.7367 37.5901 18.7367C37.7767 18.7367 38.2201 18.7834 38.5001 19.0167C38.7334 19.2034 38.8034 19.46 38.8267 19.6467C38.8034 19.7867 38.8501 20.2067 38.8267 20.5334Z" fill="white"/>
</g>
</svg>
